<svg width="264" height="50" viewBox="0 0 264 50" fill="none" xmlns="http://www.w3.org/2000/svg">
<path d="M255.624 1.56837L262.395 8.18462V41.8154L255.624 48.4314H9.20928L2.43875 41.8154V37.3307L3.8144 36.6098V41.2587L9.77896 47.0871H255.055L261.019 41.2587V8.74103L255.055 2.91288H9.77896L3.8144 8.74103V36.6098L2.43875 37.3307V8.18462L9.20928 1.56837H255.624Z" fill="#D6A354"/>
<path d="M261.707 0L259.414 2.24072L261.707 4.48144L264 2.24072L261.707 0Z" fill="#D6A354"/>
<path d="M261.707 45.5186L259.414 47.7593L261.707 50L264 47.7593L261.707 45.5186Z" fill="#D6A354"/>
<path d="M2.29304 0L0 2.24072L2.29304 4.48144L4.58607 2.24072L2.29304 0Z" fill="#D6A354"/>
<path d="M2.29304 45.5186L0 47.7593L2.29304 50L4.58607 47.7593L2.29304 45.5186Z" fill="#D6A354"/>
</svg>
