<svg width="23" height="31" viewBox="0 0 23 31" fill="none" xmlns="http://www.w3.org/2000/svg">
<path d="M11.9569 5.1084C8.36646 5.1084 5.44531 8.02943 5.44531 11.6199C5.44531 15.2103 8.36646 18.1313 11.9569 18.1313C15.5473 18.1313 18.4685 15.2103 18.4685 11.6199C18.4685 8.02943 15.5473 5.1084 11.9569 5.1084ZM11.9569 16.3798C9.3322 16.3798 7.19674 14.2444 7.19674 11.6197C7.19674 8.99505 9.3322 6.85983 11.9569 6.85983C14.5816 6.85983 16.717 8.99517 16.717 11.6199C16.717 14.2445 14.5817 16.3798 11.9569 16.3798Z" fill="#D29C4E"/>
<path d="M11.9577 0.577148C5.86929 0.577148 0.916016 5.53042 0.916016 11.6189C0.916016 15.1301 3.86075 20.3614 5.61603 23.1671C6.77092 25.013 8.01199 26.7698 9.11048 28.1137C10.8737 30.2707 11.5048 30.4513 11.9578 30.4513C12.4176 30.4513 13.0135 30.2706 14.7712 28.1124C15.8722 26.7604 17.1138 25.0047 18.2675 23.1685C20.0348 20.3559 22.9995 15.1153 22.9995 11.6187C22.9995 5.53042 18.0463 0.577148 11.9577 0.577148ZM17.0533 21.8048C14.7886 25.4808 12.7094 27.9648 11.9473 28.5989C11.1813 27.9843 9.13582 25.5594 6.83946 21.8164C4.18815 17.4944 2.66756 13.7775 2.66756 11.6189C2.66744 6.49616 6.83503 2.32858 11.9577 2.32858C17.0804 2.32858 21.248 6.49616 21.248 11.6189C21.2481 13.7652 19.7191 17.4777 17.0533 21.8048Z" fill="#D29C4E"/>
</svg>
