<svg width="188" height="101" viewBox="0 0 188 101" fill="none" xmlns="http://www.w3.org/2000/svg">
<path fill-rule="evenodd" clip-rule="evenodd" d="M114.158 47.6046C115.938 50.963 126.865 50.5601 129.246 50.5601L131.824 53.7232L129.835 57.0816C122.297 57.0816 117.731 54.3091 110.979 53.3326C106.805 52.5391 76.236 72.0905 70.6749 75.2535C60.3505 80.7732 23.8278 100.533 11.3184 100.325C10.3244 100.325 9.7347 100.13 8.93706 99.7394C2.78631 96.9669 3.76869 90.2624 6.94839 87.0994C7.74604 86.1099 8.33575 85.9146 9.52678 85.524L52.4082 69.9169C58.7676 67.3527 89.7408 55.1033 94.5042 48.7894L71.0683 46.213L70.872 56.2881L0 46.8111L0.60131 29.2373L109.187 45.6263L106.02 46.4205C109.592 53.9192 105.222 45.2357 114.159 47.6053H114.16L114.158 47.6046ZM0.796917 22.9112V22.7159V21.1405C1.18958 15.8038 2.78559 11.2606 5.75664 7.51166C9.13267 3.35981 13.6997 1.18552 19.2608 1.39308C25.4115 1.39308 30.1749 3.35909 33.5509 7.12033C36.7306 11.0646 38.3143 16.402 38.3143 23.314C38.3143 26.4649 38.118 29.2373 37.3204 31.8015L29.5859 30.6167C30.1749 28.4431 30.372 26.0735 30.372 23.314C30.372 13.2389 26.7996 8.09757 19.2615 8.09757C15.8855 8.09757 13.3071 9.28237 11.5147 12.0541C9.93104 14.423 8.93706 17.3785 8.74001 20.9444C8.74001 22.7151 8.33503 25.8782 8.53136 27.4536L0.600586 26.0735L0.796917 23.1058V22.9105V22.9112ZM141.952 13.2389C140.761 12.8483 139.362 12.8483 137.975 12.8483C136.587 12.8483 135.397 12.8483 134.206 13.2389C131.431 13.8248 128.841 15.2172 127.061 17.3792C124.274 20.347 122.888 24.2913 122.888 29.042C122.888 33.9758 124.079 37.9201 126.865 40.8878C129.443 43.8434 133.212 45.431 137.975 45.431C142.542 45.431 146.311 43.8434 149.098 40.8878C151.676 37.9201 153.063 33.9758 153.063 29.042C153.063 23.9007 151.676 19.9557 149.098 17.1839C147.306 15.0103 144.924 13.8255 141.953 13.2396L141.952 13.2389ZM122.887 6.91277C123.488 6.52216 123.684 5.93553 123.684 5.33737C123.684 3.95726 122.69 2.96849 121.303 2.96849H117.927V6.52216C118.123 6.71747 118.123 7.12033 118.32 7.31635C118.725 8.30513 119.118 9.68523 119.314 10.87H121.303C122.887 10.87 123.881 10.0766 123.881 8.69646C123.881 7.90227 123.488 7.31636 122.887 6.91349V6.91277ZM119.916 6.13083V4.75073H121.107C121.499 4.75073 121.696 4.94603 121.696 5.33664C121.696 5.72725 121.499 6.13011 121.107 6.13011H119.916V6.13083ZM119.916 9.28165V7.70624H121.107C121.696 7.70624 121.893 8.09685 121.893 8.49971C121.893 8.89032 121.696 9.28165 121.107 9.28165H119.916ZM131.628 10.8693L128.84 2.96776H127.257L124.273 10.8693H126.458L126.863 9.68451H129.245L129.638 10.8693H131.627H131.628ZM128.644 8.09685H127.257L128.055 5.93553L128.644 8.09685ZM138.772 10.8693L136.98 7.70624C137.385 7.51094 137.581 7.31563 137.778 7.12033C137.974 6.71747 138.17 6.13083 138.17 5.53267C138.17 4.15257 137.176 2.96849 135.593 2.96849H132.413V10.87H134.402V7.90227H135.003L136.39 10.87H138.772L138.772 10.8693ZM134.402 6.32614V4.75073H135.395C135.984 4.75073 136.389 5.14134 136.389 5.53267C136.389 5.93553 135.984 6.32614 135.395 6.32614H134.402ZM144.53 6.91205C145.119 6.52144 145.524 5.93481 145.524 5.33664C145.524 3.95654 144.53 2.96776 142.934 2.96776H139.57V10.8693H143.142C144.53 10.8693 145.524 10.0758 145.524 8.69574C145.524 7.90155 145.327 7.31563 144.53 6.91277V6.91205ZM141.546 6.13011V4.75001H142.737C143.339 4.75001 143.535 4.94531 143.535 5.33592C143.535 5.72653 143.339 6.12939 142.737 6.12939H141.546V6.13011ZM141.546 9.28093V7.70552H142.934C143.339 7.70552 143.535 8.09613 143.535 8.49899C143.535 8.8896 143.339 9.28093 142.934 9.28093H141.546ZM152.263 10.8686V9.28093H148.9V7.90083H151.871V6.13011H148.9V4.73776H152.263V2.96704H146.911V10.8686H152.263ZM159.813 10.8686L158.229 7.70552C158.622 7.51022 158.622 7.31491 158.818 7.11961C159.211 6.71675 159.42 6.13011 159.42 5.53195C159.42 4.15184 158.425 2.96776 156.83 2.96776H153.662V10.8693H155.639V7.90155H156.24L157.627 10.8693H159.812L159.813 10.8686ZM155.639 6.32542V4.75001H156.633C157.235 4.75001 157.431 5.14062 157.431 5.53195C157.431 5.93481 157.235 6.32542 156.633 6.32542H155.639ZM164.773 5.14062L165.964 3.95582C165.571 3.55296 165.375 3.35765 164.969 3.16235C164.576 2.96705 163.987 2.96704 163.385 2.96704C161.605 2.96704 160.414 3.95582 160.414 5.53123C160.414 6.71603 161.2 7.5095 162.587 7.7048L163.581 7.90011C163.986 7.90011 164.182 8.09541 164.182 8.49827C164.182 9.08419 163.777 9.28021 163.188 9.28021C162.586 9.28021 162.194 9.28021 161.8 9.08491C161.604 8.8896 161.604 8.8896 161.395 8.6943L160.008 9.8791C160.609 10.465 160.806 10.465 161.199 10.6733C161.604 10.8686 162.193 11.0639 162.991 11.0639C164.968 11.0639 166.159 10.0751 166.159 8.49971C166.159 7.11961 165.57 6.32614 163.986 6.13083L162.991 5.93553C162.586 5.93553 162.39 5.72797 162.39 5.33737C162.39 4.94676 162.795 4.7392 163.384 4.7392C163.777 4.7392 164.182 4.7392 164.379 4.7392C164.575 4.94675 164.575 4.94676 164.771 5.14206L164.773 5.14062ZM173.317 10.8686V2.96704H171.525V6.13011H169.34V2.96704H167.363V10.8686H169.34V7.70552H171.525V10.8686H173.317ZM180.658 6.91205V6.32614C180.658 5.14134 180.462 4.34787 179.861 3.76195C179.272 3.16379 178.67 2.96849 177.676 2.96849C176.89 2.96849 176.092 3.16379 175.503 3.76195C174.902 4.54389 174.705 5.14206 174.705 6.71747V7.12033C174.705 8.09757 174.705 9.28165 175.503 10.0758C176.092 10.674 176.89 11.0646 177.676 11.0646C178.67 11.0646 179.468 10.674 179.861 10.0758C180.855 9.28237 180.658 8.09757 180.658 6.91277V6.91205ZM176.89 4.94604C177.086 4.75073 177.479 4.75073 177.676 4.75073C178.081 4.75073 178.277 4.75073 178.473 4.94604C178.67 5.33665 178.866 5.93481 178.866 6.71675V7.11961C178.866 8.30441 178.67 8.69502 178.473 8.89032C178.277 9.08563 178.081 9.28093 177.676 9.28093C177.479 9.28093 177.087 9.08563 176.89 8.89032C176.693 8.69502 176.693 8.30441 176.693 7.11961V6.71675C176.693 5.93481 176.693 5.33665 176.89 4.94604ZM182.046 2.96776V10.8693H184.034V8.09685H185.225C186.809 8.09685 188 7.11961 188 5.53267C188 4.15257 186.809 2.96849 185.225 2.96849H182.046V2.96776ZM184.034 6.32614V4.75073H185.029C185.618 4.75073 186.023 5.14134 186.023 5.53267C186.023 5.93553 185.618 6.32614 185.029 6.32614H184.034ZM43.8732 1.78296L51.2142 0V33.779H51.0179L43.8732 32.7903V1.78296ZM57.1687 34.1704C56.9723 32.7903 56.776 31.2026 56.776 29.6272C56.776 24.6934 58.3597 20.5409 61.1467 17.3785C64.1178 14.423 67.7025 12.8476 72.0609 12.8476C74.4422 12.8476 76.6279 13.2382 78.6166 14.2277V1.78296L85.9576 0V39.1042L78.6166 37.9194V20.9444C77.0329 19.5521 75.4369 18.9662 73.6569 18.9662C70.6735 18.9662 68.4885 19.9549 66.9048 21.7264C65.3088 23.5093 64.5235 26.0742 64.5235 29.4326C64.5235 31.6062 64.9161 33.5845 65.7145 34.9646C65.9108 35.3552 66.1072 35.7465 66.5006 36.1494H66.3042L57.3795 34.7693L57.1708 34.1711L57.1687 34.1704ZM90.929 39.7023L91.518 1.78296C97.2753 1.58766 101.45 1.39235 103.831 1.39235C108.189 1.39235 111.774 2.3696 114.352 4.34787C116.733 6.32614 118.121 8.89104 118.121 12.4447C118.121 15.8031 116.328 18.5633 112.559 20.5416C117.924 22.3245 120.699 26.2688 120.699 31.9968C120.699 35.9533 119.115 39.1042 116.132 41.2785C115.543 41.6813 114.548 42.6586 113.75 43.2567L111.773 42.8661L95.2859 40.485L90.9275 39.7031L90.929 39.7023ZM99.2647 7.90155V18.172C100.456 18.3673 101.646 18.3673 102.837 18.3673C107.993 18.3673 110.375 16.5966 110.375 12.8476C110.375 9.48921 108.19 7.90155 103.635 7.90155C102.432 7.90155 100.848 7.90155 99.2647 7.90155ZM99.2647 24.2906V38.3222C100.652 38.5175 102.039 38.5175 103.033 38.5175C106.409 38.5175 108.792 37.9194 110.374 36.7346C111.97 35.7458 112.756 33.779 112.756 31.2026C112.756 28.6384 111.97 26.867 110.583 25.8782C109.183 24.6934 106.606 24.0953 103.033 24.0953C102.235 24.0953 101.044 24.0953 99.264 24.2906H99.2647ZM130.435 29.0413C130.435 35.9533 133.013 39.2995 137.973 39.2995C140.158 39.2995 141.951 38.5175 143.338 36.7346C144.725 34.7685 145.327 32.3867 145.327 29.0406C145.327 22.1285 142.933 18.7701 137.973 18.7701C135.592 18.7701 133.811 19.7589 132.412 21.5303C131.221 23.3133 130.436 25.6822 130.436 29.0413H130.435ZM156.633 57.0808L153.859 53.7225L156.633 50.5594C157.235 50.5594 157.824 50.5594 158.622 50.5594C159.617 50.3641 160.414 50.3641 161.2 50.1688C162.588 49.7782 163.385 48.984 163.987 48.5934C164.38 47.9952 164.576 47.6046 164.773 47.0057C164.969 46.6151 165.178 46.4198 164.969 45.8209C164.969 43.8426 164.184 41.2777 162.796 37.7241L152.865 13.4335H160.415L169.143 34.9638L176.89 13.4335H184.625L170.532 50.5587L170.335 50.754C170.335 50.754 167.156 57.4707 156.635 57.0801L156.633 57.0808ZM100.259 48.984C101.647 48.984 102.837 50.1688 102.837 51.5482C102.837 53.1236 101.646 54.3206 100.259 54.1131C98.8597 54.1131 97.6694 52.9283 97.6694 51.5482C97.6694 50.1681 98.8605 48.984 100.259 48.984ZM13.8939 89.8589C15.2812 89.8589 16.4723 91.0437 16.4723 92.4353C16.4723 93.8154 15.2812 94.9995 13.8939 94.9995C12.3102 94.9995 11.3162 93.8147 11.3162 92.227C11.3162 90.8469 12.3102 89.6628 13.8939 89.8581V89.8589Z" fill="white"/>
</svg>
